PathFileType	4	(X/Y/Z)	Patient4_TMGait_0pt2_02_right_19.trc.trc
DataRate	CameraRate	NumFrames	NumMarkers	Units	OrigDataRate	OrigDataStartFrame	OrigNumFrames
45.307443365696	45.307443365696	4	33	mm	45.307443365696	89	       141
Frame#	Time	R.Midfoot.Superior			Sacral			L.Shoulder			Chest			R.Shoulder			Neck			R.ASIS			L.ASIS			R.Thigh.Superior			R.Thigh.Lateral			R.Thigh.Inferior			R.Patella			L.Thigh.Superior			L.Thigh.Lateral			L.Thigh.Inferior			L.Patella			L.Shank.Superior			L.Shank.Lateral			L.Shank.Inferior			R.Shank.Superior			R.Shank.Lateral			R.Shank.Inferior			R.Heel			R.Midfoot.Lateral			R.Toe			L.Heel			L.Midfoot.Lateral			L.Midfoot.Superior			L.Toe			L.Elbow			L.Wrist			R.Elbow			R.Wrist			
		X1	Y1	Z1	X2	Y2	Z2	X3	Y3	Z3	X4	Y4	Z4	X5	Y5	Z5	X6	Y6	Z6	X7	Y7	Z7	X8	Y8	Z8	X9	Y9	Z9	X10	Y10	Z10	X11	Y11	Z11	X12	Y12	Z12	X13	Y13	Z13	X14	Y14	Z14	X15	Y15	Z15	X16	Y16	Z16	X17	Y17	Z17	X18	Y18	Z18	X19	Y19	Z19	X20	Y20	Z20	X21	Y21	Z21	X22	Y22	Z22	X23	Y23	Z23	X24	Y24	Z24	X25	Y25	Z25	X26	Y26	Z26	X27	Y27	Z27	X28	Y28	Z28	X29	Y29	Z29	X30	Y30	Z30	X31	Y31	Z31	X32	Y32	Z32	X33	Y33	Z33	

89	43.992285714286	999.765384318534	104.192706663651	593.740735496130	968.457830363221	1021.268165685657	472.314414564031	1133.394747955701	1426.469660094944	238.261076304800	1260.326119280376	1359.688360186617	382.304085886928	1212.897576260164	1451.817404303339	558.793643577545	1141.115677787937	1496.609877695043	390.807772748390	1206.329942693354	940.343124344164	555.601801570076	1154.319288080798	957.431430325294	285.783198462179	1197.794994601304	726.319098525446	533.888959267693	1104.938786083640	634.762613517429	612.487754016550	1156.213034424724	565.308375215604	528.212133284141	1137.753618961482	475.347888079109	542.758818967436	1215.753253038847	759.515572368637	320.807433133963	1136.502744509352	633.455972429747	264.589207090024	1231.578387320753	565.190483425368	324.420045523564	1237.927833976479	494.695380267034	331.931958116021	1210.569918793065	421.642192037635	324.740858275360	1120.444695892592	307.058511262927	275.447794617031	1174.754512887677	194.856247562290	342.566473133056	1082.267347253495	398.802108189233	558.794921045135	990.868743231450	324.513215753803	635.884059069707	996.689018176844	217.830822938882	577.977764074693	819.686356118103	87.054075679725	571.372427154873	905.314618594290	61.118315123316	638.486750532145	1107.121791926386	36.943287221575	612.555014877380	1047.835909313558	39.579122146385	383.824729119252	1120.756775988607	36.598033938574	302.543228272392	1204.549628120869	97.194185381723	328.423120240909	1332.121066378232	45.241333243598	298.161974662452	1015.149969305665	1093.547865351460	141.329136890769	1010.879719806778	832.848372421685	171.382647659099	1416.894689408499	1200.627861262065	678.673135253970	1600.313028680457	1331.072208117806	565.282468648131	
90	44.014357142857	996.554699890223	104.507357206492	594.071511185474	968.088831428554	1021.905733417430	465.828156249878	1136.431984290663	1427.252984033786	234.233229741674	1261.316353559707	1360.168465271674	379.876183300600	1211.734738959879	1452.296094743258	555.818600476807	1142.147430804672	1497.205990895793	387.251763624986	1204.812389785036	941.133937180506	551.854260618033	1156.117707723946	957.755070677156	281.590808716330	1196.340115710319	727.051893820704	531.691571084188	1102.522690078147	636.241771606426	610.075138954866	1154.745638311918	565.982505235348	526.962924043830	1136.187534472384	475.939450364249	542.072729297991	1216.282045984686	759.221622244582	318.118753726830	1136.927886830291	632.990924982546	261.959674118759	1231.238113849337	564.568497891877	322.847240399175	1237.269785184463	493.812539790900	330.543949524697	1209.190067262828	420.968655434374	323.591117026022	1118.385913949221	306.871278632067	274.642156166387	1171.371594434416	194.545246267164	342.348708191407	1080.291294120592	399.793067857465	558.171976440824	987.978460427242	326.361008835911	635.139045642957	993.897934362163	219.094246001060	578.039867805476	816.154055782157	89.381188424174	571.601090544037	901.533896246580	62.244919951202	638.703118758286	1102.933322667312	36.956791100255	612.480656822030	1043.455147077747	39.776711464243	383.907586422172	1116.368672456128	36.741094905026	302.697280523846	1200.288265831025	97.134281672444	328.515172104169	1327.762726262405	44.797644007801	298.154798316709	1023.309101121813	1093.432105604478	132.707210089635	1023.440877105177	832.428770412760	159.438595236996	1409.169470996932	1194.290122693170	677.813499195145	1604.358686432521	1312.598142170347	569.970327073399	
91	44.036428571429	993.310962251139	104.706016865335	594.444003968777	967.524005081038	1022.051590913886	459.243853193114	1139.338100326703	1427.754210289463	230.412488003896	1262.084360554448	1360.289284710422	377.638312472942	1210.271965971696	1452.245798569665	553.068972842326	1143.012120519682	1497.418064847152	383.924595163603	1203.115256264384	941.621432305225	548.127098690254	1157.884071963204	957.718852771820	277.441280101833	1195.157077853137	727.484300044702	529.514161861692	1100.509602517387	637.224620524818	607.572268511419	1153.878542417241	566.254885280394	525.669902418240	1135.317660856483	475.923962503603	541.399762256200	1217.207442451493	758.880416649607	315.662838156482	1138.201516200764	632.267529490500	259.474978782969	1231.874441653249	563.895879056544	321.460840130883	1237.731770723662	492.737646140307	329.284200157858	1208.715407711468	420.036295992481	322.579630691739	1116.996471776912	306.641952875110	273.893423056939	1168.322032344545	194.109646050985	342.222155804376	1078.862282941552	400.273551322462	557.525260704802	985.477855738667	327.898132111682	634.358797677240	991.276570752762	220.037886902536	578.110392240644	812.591415530039	91.495919799625	571.919179625132	897.736977735429	63.202561938972	638.969903485994	1098.760381523178	37.001793295833	612.447182296321	1039.085937273546	40.004887339294	383.998129175525	1111.993471078598	36.900942052492	302.865168924560	1196.056016832487	97.074757402349	328.638211316690	1323.416516602495	44.334426556551	298.155017695973	1032.044064822856	1092.844590107279	124.493570356245	1036.960530955193	831.662031685093	147.923231158561	1400.104725832091	1186.593831376473	676.799660417728	1607.143224993929	1290.396577137465	575.499590785623	
92	44.058500000000	990.068073157671	104.812919172134	594.832776502411	966.754739084036	1021.637074063711	452.560898950865	1142.105733073033	1427.900542419593	226.792408091317	1262.619382241495	1359.986088941350	375.586180411054	1208.487777654098	1451.596705900336	550.538644920697	1143.694960989883	1497.185600097184	380.809534046284	1201.234439924496	941.737234715753	544.425684739629	1159.602485676623	957.280098151322	273.340398712956	1194.354663611385	727.575853486808	527.300671210849	1099.091919387407	637.611254562864	604.947760619381	1153.829563149074	566.063938603875	524.284014454940	1135.390631591425	475.212216219324	540.716380395284	1218.511388445142	758.433479857436	313.370311005020	1140.283309497300	631.246337029327	257.105452566045	1233.455812831421	563.133087961617	320.221503044879	1239.275563762557	491.448733214487	328.131987630796	1209.119266974909	418.812448674866	321.685353195480	1116.256678643944	306.335945124198	273.184803588561	1165.601114816632	193.530760352706	342.168292725307	1078.176415780508	400.167935887381	556.818780045765	983.532378082197	329.132537102476	633.499187990064	988.927772333601	220.672345208122	578.154664636880	809.044790561632	93.526397212530	572.283615017004	893.941328480566	64.094223592257	639.260915354811	1094.587888900707	37.062480185550	612.466020012810	1034.734237799567	40.253268018936	384.090362688105	1107.635791415714	37.066704251866	303.036279949931	1191.850303559651	97.013195366510	328.785374673403	1319.085406452479	43.868497658158	298.160021193697	1041.461585222409	1091.713682977553	116.726748328592	1051.495470217180	830.492397420501	136.951944857055	1389.621850186755	1177.586861526891	675.579839288306	1608.093156126262	1264.326253110430	581.783245555779	
